<svg width="145" height="121" viewBox="0 0 145 121" fill="none" xmlns="http://www.w3.org/2000/svg">
<rect x="25" y="15.9195" width="95" height="58.1959" fill="#595959"/>
<rect x="25" width="95" height="13" fill="#595959"/>
<rect x="25" y="77" width="95" height="13" fill="#595959"/>
<path d="M50.25 22.4375H57.875L70.25 50.875V62.4375H68.25L57.875 36.8125V68.5H50.25V22.4375ZM85.1875 22.4375H92.8125V68.5H85.1875V36.8125L74.875 62.4375H72.8125V51L85.1875 22.4375Z" fill="white"/>
<path d="M2.15625 97.7266H5.01562L9.65625 108.391V112.727H8.90625L5.01562 103.117V115H2.15625V97.7266ZM15.2578 97.7266H18.1172V115H15.2578V103.117L11.3906 112.727H10.6172V108.438L15.2578 97.7266ZM36.5859 115H33.6797L29.2031 102.062L24.6797 115H21.75L27.7969 97.75H30.5859L36.5859 115ZM30.75 109.516L31.4297 111.414H26.9531L27.6094 109.516H30.75ZM40.2422 115V97.7266H43.1016V115H40.2422ZM45.9375 106.609L51.9375 115H48.6797L44.0625 108.203V104.781L48.2578 97.7266H51.4688L45.9375 106.609ZM55.9453 97.7266H58.8047V115H55.9453V97.7266ZM66.0234 107.219H59.7656V105.297H66.0234V107.219ZM59.7656 112.867H66.75V115H59.7656V112.867ZM66.75 97.7266V99.8594H59.7656V97.7266H66.75ZM73.2188 106C73.2188 107.203 73.2969 108.227 73.4531 109.07C73.6094 109.898 73.8359 110.586 74.1328 111.133C74.4297 111.664 74.7812 112.062 75.1875 112.328C75.6094 112.594 76.0781 112.75 76.5938 112.797V115.117C75.6406 115.055 74.7734 114.828 73.9922 114.438C73.2266 114.031 72.5781 113.461 72.0469 112.727C71.5156 111.977 71.1016 111.062 70.8047 109.984C70.5078 108.906 70.3594 107.672 70.3594 106.281V97.7266H73.2188V106ZM83.7891 97.7266V106.281C83.7891 107.672 83.6406 108.906 83.3438 109.984C83.0469 111.062 82.625 111.977 82.0781 112.727C81.5469 113.461 80.8984 114.031 80.1328 114.438C79.3672 114.828 78.5078 115.055 77.5547 115.117V112.797C78.0703 112.734 78.5312 112.578 78.9375 112.328C79.3594 112.062 79.7188 111.664 80.0156 111.133C80.3125 110.602 80.5391 109.922 80.6953 109.094C80.8672 108.25 80.9531 107.219 80.9531 106V97.7266H83.7891ZM87.8438 97.7266H90.6562V115H87.8438V97.7266ZM92.8125 97.7266C93.5469 97.7266 94.2734 97.8438 94.9922 98.0781C95.7109 98.3125 96.3516 98.6641 96.9141 99.1328C97.4922 99.6016 97.9531 100.172 98.2969 100.844C98.6562 101.5 98.8359 102.242 98.8359 103.07C98.8359 103.945 98.6875 104.742 98.3906 105.461C98.0938 106.164 97.6797 106.758 97.1484 107.242C96.6172 107.727 95.9766 108.102 95.2266 108.367C94.4766 108.633 93.6484 108.766 92.7422 108.766H91.6172V106.703H93.2344C93.5781 106.703 93.9141 106.648 94.2422 106.539C94.5859 106.414 94.8984 106.219 95.1797 105.953C95.4609 105.688 95.6875 105.32 95.8594 104.852C96.0312 104.367 96.1172 103.773 96.1172 103.07C96.1172 102.789 96.0781 102.469 96 102.109C95.9219 101.734 95.7578 101.383 95.5078 101.055C95.2734 100.711 94.9375 100.43 94.5 100.211C94.0625 99.9766 93.4844 99.8594 92.7656 99.8594H91.6172V97.7266H92.8125ZM102.023 97.7266H104.836V115H102.023V97.7266ZM106.992 97.7266C107.727 97.7266 108.453 97.8438 109.172 98.0781C109.891 98.3125 110.531 98.6641 111.094 99.1328C111.672 99.6016 112.133 100.172 112.477 100.844C112.836 101.5 113.016 102.242 113.016 103.07C113.016 103.945 112.867 104.742 112.57 105.461C112.273 106.164 111.859 106.758 111.328 107.242C110.797 107.727 110.156 108.102 109.406 108.367C108.656 108.633 107.828 108.766 106.922 108.766H105.797V106.703H107.414C107.758 106.703 108.094 106.648 108.422 106.539C108.766 106.414 109.078 106.219 109.359 105.953C109.641 105.688 109.867 105.32 110.039 104.852C110.211 104.367 110.297 103.773 110.297 103.07C110.297 102.789 110.258 102.469 110.18 102.109C110.102 101.734 109.938 101.383 109.688 101.055C109.453 100.711 109.117 100.43 108.68 100.211C108.242 99.9766 107.664 99.8594 106.945 99.8594H105.797V97.7266H106.992ZM116.297 97.7266H119.156V115H116.297V97.7266ZM126.375 107.219H120.117V105.297H126.375V107.219ZM120.117 112.867H127.102V115H120.117V112.867ZM127.102 97.7266V99.8594H120.117V97.7266H127.102ZM130.898 97.7266H133.711V115H130.898V97.7266ZM142.617 115H139.641L136.383 108.742C136.336 108.742 136.281 108.75 136.219 108.766C136.172 108.766 136.094 108.766 135.984 108.766C135.875 108.766 135.711 108.766 135.492 108.766C135.289 108.766 135.016 108.766 134.672 108.766V106.703H136.266C136.609 106.703 136.953 106.648 137.297 106.539C137.641 106.414 137.953 106.219 138.234 105.953C138.516 105.688 138.742 105.32 138.914 104.852C139.086 104.367 139.172 103.773 139.172 103.07C139.172 102.789 139.133 102.469 139.055 102.109C138.977 101.734 138.812 101.383 138.562 101.055C138.328 100.711 137.992 100.43 137.555 100.211C137.117 99.9766 136.539 99.8594 135.82 99.8594H134.672V97.7266H135.867C136.602 97.7266 137.328 97.8438 138.047 98.0781C138.766 98.3125 139.406 98.6641 139.969 99.1328C140.547 99.6016 141.008 100.172 141.352 100.844C141.711 101.5 141.891 102.242 141.891 103.07C141.891 104.32 141.602 105.383 141.023 106.258C140.445 107.133 139.664 107.781 138.68 108.203L142.617 115Z" fill="white"/>
</svg>
